<svg xmlns="http://www.w3.org/2000/svg" width="16" height="16" fill="context-fill" fill-opacity="context-fill-opacity" viewBox="0 0 16 16"><path d="m5.738 8.912-1.43-1.187a.61.61 0 0 1 .014-.947.6.6 0 0 1 .334-.125l1.848-.12.251-.187.682-1.714a.605.605 0 0 1 1.127 0l.682 1.714.25.187 1.849.12a.606.606 0 0 1 .348 1.072L10.265 8.91l-.09.296.455 1.788a.6.6 0 0 1-.231.639.61.61 0 0 1-.68.023l-1.564-.989h-.31l-1.563.989a.607.607 0 0 1-.912-.662l.454-1.783ZM13 1a2 2 0 0 1 2 2v10a2 2 0 0 1-2 2H3a2 2 0 0 1-2-2V3a2 2 0 0 1 2-2Zm.75 1.85-.6-.6H2.85l-.6.6v10.3l.6.6h10.3l.6-.6Z"/></svg>
