<svg xmlns="http://www.w3.org/2000/svg" width="16" height="16" fill="context-fill" fill-opacity="context-fill-opacity" viewBox="0 0 16 16"><path d="M14 1a2 2 0 0 1 2 2v10a2 2 0 0 1-2 2H2a2 2 0 0 1-1.989-1.796L0 13V3a2 2 0 0 1 2-2ZM1.25 2.85v10.3l.6.6H6V2.25H1.85Zm12.9 10.9.6-.6V2.85l-.6-.6h-6.9v11.5ZM5 4.375C5 4.72 4.72 5 4.375 5h-1.75a.625.625 0 0 1 0-1.25h1.75c.345 0 .625.28.625.625m0 2C5 6.72 4.72 7 4.375 7h-1.75a.625.625 0 0 1 0-1.25h1.75c.345 0 .625.28.625.625m0 2C5 8.72 4.72 9 4.375 9h-1.75a.625.625 0 0 1 0-1.25h1.75c.345 0 .625.28.625.625"/></svg>
