<svg xmlns="http://www.w3.org/2000/svg" width="16" height="16" fill="context-fill" fill-opacity="context-fill-opacity" viewBox="0 0 16 16"><path d="M14 0a2 2 0 0 1 2 2v12a2 2 0 0 1-2 2H2a2 2 0 0 1-2-2V2a2 2 0 0 1 2-2Zm.75 1.85-.6-.6H1.85l-.6.6v12.3l.6.6h12.3l.6-.6ZM5.5 4A2.5 2.5 0 0 1 8 6.5V12H6.75V8.25h-2.5V12H3V6.5A2.5 2.5 0 0 1 5.5 4m0 1.25c-.69 0-1.25.56-1.25 1.25V7h2.5v-.5c0-.69-.56-1.25-1.25-1.25M10.25 7H11a2 2 0 0 1 2 2v1a2 2 0 0 1-2 2H9V4h1.25Zm0 3.75H11a.75.75 0 0 0 .75-.75V9a.75.75 0 0 0-.75-.75h-.75Z"/></svg>
