<svg xmlns="http://www.w3.org/2000/svg" width="16" height="16" fill="context-fill" fill-opacity="context-fill-opacity" viewBox="0 0 16 16"><path d="M8 3c.784 0 1.613.37 2.121.879C10.63 4.387 11 5.216 11 6s-.37 1.613-.879 2.121A3.16 3.16 0 0 1 8 9c-.784 0-1.613-.37-2.121-.879A3.16 3.16 0 0 1 5 6c0-.784.37-1.613.879-2.121A3.16 3.16 0 0 1 8 3M6.763 4.763c-.351.351-.513.709-.513 1.237s.162.886.513 1.237.709.513 1.237.513.886-.162 1.237-.513S9.75 6.528 9.75 6s-.162-.886-.513-1.237S8.528 4.25 8 4.25s-.886.162-1.237.513M8 0c2.164 0 4.243.93 5.657 2.343C15.07 3.757 16 5.836 16 8s-.93 4.243-2.343 5.657a8 8 0 0 1-.626.56C11.664 15.31 9.863 16 8 16c-1.864 0-3.664-.69-5.032-1.784v.001l-.131-.109a7.6 7.6 0 0 1-.793-.768l-.007-.008C.797 11.934 0 10.004 0 8c0-2.164.93-4.243 2.343-5.657C3.757.93 5.836 0 8 0M3.227 3.227C1.971 4.483 1.25 6.091 1.25 8c0 1.683.56 3.131 1.553 4.311A6.98 6.98 0 0 1 8 10c2.063 0 3.916.892 5.197 2.312.993-1.18 1.553-2.629 1.553-4.312 0-1.909-.721-3.517-1.977-4.773S9.909 1.25 8 1.25s-3.517.721-4.773 1.977M8 14.75c1.683 0 3.131-.56 4.311-1.553A5.73 5.73 0 0 0 8 11.25a5.73 5.73 0 0 0-4.312 1.947C4.868 14.19 6.317 14.75 8 14.75"/></svg>
